<svg width="42" height="42" viewBox="0 0 42 42" fill="none" xmlns="http://www.w3.org/2000/svg">
<rect x="0.5" y="0.5" width="41" height="41" rx="20.5" stroke="#BCBCBC"/>
<circle cx="21" cy="21" r="20" fill="#F4F4F4"/>
<path d="M21 1C9.96 1 1 9.96 1 21C1 32.04 9.96 41 21 41C32.04 41 41 32.04 41 21C41 9.96 32.04 1 21 1ZM21 9C24.86 9 28 12.14 28 16C28 19.86 24.86 23 21 23C17.14 23 14 19.86 14 16C14 12.14 17.14 9 21 9ZM21 37C16.94 37 12.14 35.36 8.72 31.24C12.2232 28.4914 16.5472 26.9976 21 26.9976C25.4528 26.9976 29.7768 28.4914 33.28 31.24C29.86 35.36 25.06 37 21 37Z" fill="#C7C7C7"/>
</svg>
